<?xml version="1.0"?>
<svg xmlns="http://www.w3.org/2000/svg" xmlns:xlink="http://www.w3.org/1999/xlink" xmlns:svgjs="http://svgjs.com/svgjs" version="1.1" width="512" height="512" x="0" y="0" viewBox="0 0 512 512" style="enable-background:new 0 0 512 512" xml:space="preserve" class=""><g><g xmlns="http://www.w3.org/2000/svg"><circle cx="256" cy="256" fill="#3b5b54" r="256" data-original="#f7e46f" style="" class=""/><path d="m331.708 134.08-58.675-58.675-48.702 48.381 105.077 105.077-190.541 190.487 91.364 91.364c8.475.848 17.071 1.286 25.769 1.286 141.385 0 256-114.615 256-256 0-8.682-.438-17.261-1.281-25.721l-137.63-137.629z" fill="#3b5b54" data-original="#f5db48" style="" class=""/><path d="m138.867 92.65v326.7h117.089l23.588-182.394-23.588-144.306z" fill="#f8e47c" data-original="#e8a354" style="" class=""/><path d="m256 92.65h117.089v326.701h-117.089z" fill="#cebf6a" data-original="#e6973e" style="" class=""/><path d="m162.412 343.823 56.823 56.824 9.472-30.136-9.472-26.688-25.844-10.384z" fill="#d4e4e4" data-original="#d4e4e4" style="" class=""/><path d="m162.412 111.353v232.47h56.823v56.824h36.765l32.059-163.691-32.059-125.603z" fill="#e8f1f1" data-original="#e8f1f1" style="" class=""/><path d="m349.588 111.353h-93.588v162.93l11.353 40.136-11.353 47.805v38.423h93.588v-38.423l-12-42.989 12-44.952z" fill="#d4e4e4" data-original="#d4e4e4" style="" class=""/><path d="m179.2 174.724v20h76.8l4.727-10-4.727-10z" fill="#d4e4e4" data-original="#d4e4e4" style="" class=""/><path d="m256 174.724h76.781v20h-76.781z" fill="#c0d7d7" data-original="#c0d7d7" style="" class=""/><path d="m179.2 220.861v20h76.8l4.727-10-4.727-10z" fill="#d4e4e4" data-original="#d4e4e4" style="" class=""/><path d="m256 220.861h76.781v20h-76.781z" fill="#c0d7d7" data-original="#c0d7d7" style="" class=""/><path d="m179.2 266.998h60.011v20h-60.011z" fill="#d4e4e4" data-original="#d4e4e4" style="" class=""/><path d="m256 68.411c-13.386 0-24.238 10.851-24.238 24.238h-32.63v43.125h56.868l20.153-33.681z" fill="#383838" data-original="#ff633d" style="" class=""/><path d="m280.238 92.649c0-13.386-10.852-24.238-24.238-24.238v24.238 24.238 18.887h56.868v-43.125z" fill="#000000" data-original="#ee2600" style="" class=""/><path d="m256 274.283v87.941h93.588v-87.941zm74.091 69.62h-54.593v-51.299h54.593z" fill="#3b5b54" data-original="#5688e1" style="" class=""/><path d="m373.044 256.559-64.488 65.431-22.301-22.627-10.757 10.915 22.3 22.627-.083.084 10.758 10.914 75.328-76.43z" fill="#ff0000" data-original="#06bf51" style="" class=""/></g></g></svg>
