<?xml version="1.0"?>
<svg xmlns="http://www.w3.org/2000/svg" xmlns:xlink="http://www.w3.org/1999/xlink" xmlns:svgjs="http://svgjs.com/svgjs" version="1.1" width="512" height="512" x="0" y="0" viewBox="0 0 512 512" style="enable-background:new 0 0 512 512" xml:space="preserve" class=""><g><g xmlns="http://www.w3.org/2000/svg"><g><path d="m466.125 421.625h-420.25c-25.295 0-45.875-20.58-45.875-45.875v-239.5c0-25.295 20.58-45.875 45.875-45.875h420.25c25.295 0 45.875 20.58 45.875 45.875v239.5c0 25.295-20.58 45.875-45.875 45.875z" fill="#f8e47c" data-original="#ffe796" style="" class=""/></g><path d="m466.125 90.375h-210.125v331.25h210.125c25.295 0 45.875-20.58 45.875-45.875v-239.5c0-25.295-20.58-45.875-45.875-45.875z" fill="#cdbd68" data-original="#ffcf7d" style="" class=""/><g><path d="m188.25 301.125h-120.5c-8.284 0-15-6.716-15-15 0-41.493 33.757-75.25 75.25-75.25s75.25 33.757 75.25 75.25c0 8.284-6.716 15-15 15z" fill="#3b5b54" data-original="#fe6a16" style="" class=""/></g><g><path d="m188.25 361.375h-120.5c-8.284 0-15-6.716-15-15s6.716-15 15-15h120.5c8.284 0 15 6.716 15 15s-6.716 15-15 15z" fill="#588d82" data-original="#1b3b6b" style="" class=""/></g><g><path d="m444.25 210.75h-120.5c-8.284 0-15-6.716-15-15s6.716-15 15-15h120.5c8.284 0 15 6.716 15 15s-6.716 15-15 15z" fill="#3b5b54" data-original="#12254c" style="" class=""/></g><g><path d="m444.25 271h-120.5c-8.284 0-15-6.716-15-15s6.716-15 15-15h120.5c8.284 0 15 6.716 15 15s-6.716 15-15 15z" fill="#3b5b54" data-original="#12254c" style="" class=""/></g><g><path d="m444.25 331.25h-120.5c-8.284 0-15-6.716-15-15s6.716-15 15-15h120.5c8.284 0 15 6.716 15 15s-6.716 15-15 15z" fill="#3b5b54" data-original="#12254c" style="" class=""/></g><g><path d="m128 240.875c-24.882 0-45.125-20.243-45.125-45.125s20.243-45.125 45.125-45.125 45.125 20.243 45.125 45.125-20.243 45.125-45.125 45.125z" fill="#ffcdbe" data-original="#ffcdbe" style="" class=""/></g></g></g></svg>
