<?xml version="1.0"?>
<svg xmlns="http://www.w3.org/2000/svg" xmlns:xlink="http://www.w3.org/1999/xlink" xmlns:svgjs="http://svgjs.com/svgjs" version="1.1" width="512" height="512" x="0" y="0" viewBox="0 0 512 512" style="enable-background:new 0 0 512 512" xml:space="preserve" class=""><g><path xmlns="http://www.w3.org/2000/svg" d="m330 437c0 48.601562-84.902344 75-165 75s-165-26.398438-165-75c0-36.300781 48.898438-64.800781 124.800781-72.898438h80.398438c75.902343 8.097657 124.800781 36.597657 124.800781 72.898438zm0 0" fill="#3b5b54" data-original="#61d7a8" style="" class=""/><path xmlns="http://www.w3.org/2000/svg" d="m330 437c0 48.601562-84.902344 75-165 75v-147.898438h40.199219c75.902343 8.097657 124.800781 36.597657 124.800781 72.898438zm0 0" fill="#3b5b54" data-original="#00ab94" style="" class=""/><path xmlns="http://www.w3.org/2000/svg" d="m165 0c-90.902344 0-165 75.097656-165 166 0 66.898438 22.5 85 165 298 143.402344-214.800781 165-231.402344 165-298 0-90.902344-74.097656-166-165-166zm0 0" fill="#cdbd68" data-original="#ff641a" style="" class=""/><path xmlns="http://www.w3.org/2000/svg" d="m330 166c0 66.597656-21.597656 83.199219-165 298v-464c90.902344 0 165 75.097656 165 166zm0 0" fill="#f8e47c" data-original="#f03800" style="" class=""/><path xmlns="http://www.w3.org/2000/svg" d="m202.199219 91c-16.5 0-28.796875 7.5-37.199219 17.101562-8.402344-9.601562-20.699219-17.101562-37.199219-17.101562-29.398437 0-52.199219 24.300781-52.199219 55.5 0 38.398438 33.597657 60 89.398438 108.300781 56.097656-48.601562 89.398438-70.199219 89.398438-108.300781 0-31.199219-22.800782-55.5-52.199219-55.5zm0 0" fill="#3b5b54" data-original="#ffda2d" style="" class=""/><path xmlns="http://www.w3.org/2000/svg" d="m165 254.800781v-146.699219c8.402344-9.601562 20.699219-17.101562 37.199219-17.101562 29.398437 0 52.199219 24.300781 52.199219 55.5 0 38.101562-33.296876 59.699219-89.398438 108.300781zm0 0" fill="#3b5b54" data-original="#fdbf00" style="" class=""/></g></svg>
