<?xml version="1.0"?>
<svg xmlns="http://www.w3.org/2000/svg" xmlns:xlink="http://www.w3.org/1999/xlink" xmlns:svgjs="http://svgjs.com/svgjs" version="1.1" width="512" height="512" x="0" y="0" viewBox="0 0 512 512" style="enable-background:new 0 0 512 512" xml:space="preserve" class=""><g><g xmlns="http://www.w3.org/2000/svg"><g><g><path d="m65 65c15.125 0 27.5-12.375 27.5-27.5 0-15.125-12.375-27.5-27.5-27.5-15.125 0-27.5 12.375-27.5 27.5 0 15.125 12.375 27.5 27.5 27.5z" fill="#ffd3b3" data-original="#ffd3b3" style="" class=""/><path d="m120 120c0-30.25-24.75-55-55-55-30.25 0-55 24.75-55 55z" fill="#ff6c6c" data-original="#80d6fb" style="" class=""/></g><g><path d="m175 65c15.125 0 27.5-12.375 27.5-27.5 0-15.125-12.375-27.5-27.5-27.5-15.125 0-27.5 12.375-27.5 27.5 0 15.125 12.375 27.5 27.5 27.5z" fill="#ffd3b3" data-original="#ffd3b3" style="" class=""/><path d="m230 120c0-30.25-24.75-55-55-55-30.25 0-55 24.75-55 55z" fill="#f8e47c" data-original="#ffb0aa" style="" class=""/></g></g><g><g><path d="m337 65c15.125 0 27.5-12.375 27.5-27.5 0-15.125-12.375-27.5-27.5-27.5-15.125 0-27.5 12.375-27.5 27.5 0 15.125 12.375 27.5 27.5 27.5z" fill="#ffd3b3" data-original="#ffd3b3" style="" class=""/><path d="m392 120c0-30.25-24.75-55-55-55-30.25 0-55 24.75-55 55z" fill="#ff6c6c" data-original="#80d6fb" style="" class=""/></g><g><path d="m447 65c15.125 0 27.5-12.375 27.5-27.5 0-15.125-12.375-27.5-27.5-27.5-15.125 0-27.5 12.375-27.5 27.5 0 15.125 12.375 27.5 27.5 27.5z" fill="#ffd3b3" data-original="#ffd3b3" style="" class=""/><path d="m502 120c0-30.25-24.75-55-55-55-30.25 0-55 24.75-55 55z" fill="#f8e47c" data-original="#ffb0aa" style="" class=""/></g></g><g><path d="m65 447c15.125 0 27.5-12.375 27.5-27.5 0-15.125-12.375-27.5-27.5-27.5-15.125 0-27.5 12.375-27.5 27.5 0 15.125 12.375 27.5 27.5 27.5z" fill="#ffd3b3" data-original="#ffd3b3" style="" class=""/><path d="m120 502c0-30.25-24.75-55-55-55-30.25 0-55 24.75-55 55z" fill="#ff6c6c" data-original="#80d6fb" style="" class=""/></g><g><path d="m447 447c15.125 0 27.5-12.375 27.5-27.5 0-15.125-12.375-27.5-27.5-27.5-15.125 0-27.5 12.375-27.5 27.5 0 15.125 12.375 27.5 27.5 27.5z" fill="#ffd3b3" data-original="#ffd3b3" style="" class=""/><path d="m502 502c0-30.25-24.75-55-55-55-30.25 0-55 24.75-55 55z" fill="#ff6c6c" data-original="#80d6fb" style="" class=""/></g><g><path d="m256 447c15.125 0 27.5-12.375 27.5-27.5 0-15.125-12.375-27.5-27.5-27.5-15.125 0-27.5 12.375-27.5 27.5 0 15.125 12.375 27.5 27.5 27.5z" fill="#ffd3b3" data-original="#ffd3b3" style="" class=""/><path d="m311 502c0-30.25-24.75-55-55-55-30.25 0-55 24.75-55 55z" fill="#f8e47c" data-original="#ffb0aa" style="" class=""/></g><g><g><path d="m201 256c15.125 0 27.5-12.375 27.5-27.5 0-15.125-12.375-27.5-27.5-27.5-15.125 0-27.5 12.375-27.5 27.5 0 15.125 12.375 27.5 27.5 27.5z" fill="#ffd3b3" data-original="#ffd3b3" style="" class=""/><path d="m256 311c0-30.25-24.75-55-55-55-30.25 0-55 24.75-55 55z" fill="#ff6c6c" data-original="#80d6fb" style="" class=""/></g><g><path d="m311 256c15.125 0 27.5-12.375 27.5-27.5 0-15.125-12.375-27.5-27.5-27.5-15.125 0-27.5 12.375-27.5 27.5 0 15.125 12.375 27.5 27.5 27.5z" fill="#ffd3b3" data-original="#ffd3b3" style="" class=""/><path d="m366 311c0-30.25-24.75-55-55-55-30.25 0-55 24.75-55 55z" fill="#f8e47c" data-original="#ffb0aa" style="" class=""/></g></g><g><path d="m166 225h-51v-99h10v89h41z" fill="#666666" data-original="#b3b3b3" style="" class=""/></g><g><path d="m397 225h-51v-10h41v-89h10z" fill="#666666" data-original="#b3b3b3" style="" class=""/></g><path d="m261 342.833v-26h-10v26h-191v43h10v-33h181v33h10v-33h181v33h10v-43z" fill="#666666" data-original="#b3b3b3" style="" class=""/></g></g></svg>
